<svg id="Layer_1" data-name="Layer 1" xmlns="http://www.w3.org/2000/svg" viewBox="0 0 100 100"><defs><style>.cls-1{fill:#09a3d9;}.cls-2{fill:#fff;}.cls-2,.cls-3{stroke:#09a3d9;stroke-linecap:round;stroke-miterlimit:10;stroke-width:5px;}.cls-3{fill:none;}</style></defs><title>bus-active</title><rect class="cls-1" x="12" y="81.99" width="10.97" height="12.51" rx="1.84" ry="1.84"/><rect class="cls-1" x="77.05" y="81.99" width="10.93" height="12.51" rx="1.84" ry="1.84"/><path class="cls-2" d="M22.93,9.77H77.07A8.43,8.43,0,0,1,85.5,18.2V85a.94.94,0,0,1-.94.94H15.44A.94.94,0,0,1,14.5,85V18.2a8.43,8.43,0,0,1,8.43-8.43Z"/><rect class="cls-1" x="22.97" y="67.75" width="11.44" height="5.92"/><rect class="cls-1" x="3.61" y="35.96" width="11.44" height="5.92" transform="translate(-29.59 48.25) rotate(-90)"/><rect class="cls-1" x="84.99" y="35.96" width="11.44" height="5.92" transform="translate(51.79 129.63) rotate(-90)"/><rect class="cls-1" x="65.61" y="67.75" width="11.44" height="5.92"/><line class="cls-3" x1="14.5" y1="56.58" x2="85.5" y2="56.58"/><line class="cls-3" x1="14.5" y1="23.58" x2="85.5" y2="23.58"/><line class="cls-3" x1="50" y1="53.84" x2="50" y2="24"/></svg>