<svg id="Layer_1" data-name="Layer 1" xmlns="http://www.w3.org/2000/svg" viewBox="0 0 100 100"><defs><style>.cls-1{fill:none;}.cls-1,.cls-3,.cls-4{stroke:#09a3d9;stroke-miterlimit:10;stroke-width:5px;}.cls-2,.cls-4{fill:#09a3d9;}.cls-3{fill:#fff;}</style></defs><title>tickets-active</title><rect class="cls-1" x="17.96" y="42.3" width="72.6" height="35.82" rx="2.33" ry="2.33" transform="translate(-19.75 27.17) rotate(-23.91)"/><line class="cls-1" x1="63.65" y1="37.77" x2="77.89" y2="69.89"/><path class="cls-2" d="M57.25,51.43a3.87,3.87,0,0,1-2,5.07L26.81,69a3.85,3.85,0,0,1-3.09-7.06L52.17,49.44A3.85,3.85,0,0,1,57.25,51.43Z"/><path class="cls-2" d="M60.66,59.23a3.87,3.87,0,0,1-2,5.07L30.23,76.77a3.85,3.85,0,0,1-3.09-7.06L55.59,57.24A3.85,3.85,0,0,1,60.66,59.23Z"/><path class="cls-2" d="M43.12,76.21a3.87,3.87,0,0,1-2,5.07l-7.48,3.28a3.85,3.85,0,0,1-3.09-7.06L38,74.23A3.86,3.86,0,0,1,43.12,76.21Z"/><path class="cls-3" d="M83.86,36.54l-50.49,50a2.47,2.47,0,0,1-3.46,0l-23.15-23a2.42,2.42,0,0,1,0-3.43l50.49-50a2.47,2.47,0,0,1,3.46,0l23.15,23A2.42,2.42,0,0,1,83.86,36.54Z"/><line class="cls-4" x1="46.03" y1="23.06" x2="72.14" y2="48.93"/><path class="cls-2" d="M43,39.67a3.87,3.87,0,0,1,0,5.44L20.94,67a3.85,3.85,0,0,1-5.42-5.47L37.58,39.64A3.85,3.85,0,0,1,43,39.67Z"/><path class="cls-2" d="M49,45.72a3.87,3.87,0,0,1,0,5.44L26.94,73a3.85,3.85,0,0,1-5.42-5.47L43.57,45.69A3.85,3.85,0,0,1,49,45.72Z"/><path class="cls-2" d="M38.76,67.88a3.87,3.87,0,0,1,0,5.45l-5.8,5.75a3.85,3.85,0,0,1-5.42-5.47l5.8-5.75A3.86,3.86,0,0,1,38.76,67.88Z"/></svg>